<?xml version="1.0" encoding="UTF-8"?>
<svg xmlns="http://www.w3.org/2000/svg" xmlns:xlink="http://www.w3.org/1999/xlink" width="512px" height="384px" viewBox="0 0 512 384" version="1.1">
<g id="surface1">
<path style="fill:none;stroke-width:8;stroke-linecap:round;stroke-linejoin:round;stroke:rgb(85.490197%,84.705883%,90.196079%);stroke-opacity:1;stroke-miterlimit:4;" d="M 39.999542 119.999695 L 160.000458 119.999695 C 171.045837 119.999695 179.999695 128.954926 179.999695 140.000305 C 179.999695 151.045685 171.045837 159.999542 160.000458 159.999542 L 39.999542 159.999542 C 28.954163 159.999542 20.000305 151.045685 20.000305 140.000305 C 20.000305 128.954926 28.954163 119.999695 39.999542 119.999695 Z M 39.999542 119.999695 " transform="matrix(2.844444,0,0,2.844444,-28.444444,-113.777778)"/>
<path style="fill:none;stroke-width:8;stroke-linecap:round;stroke-linejoin:round;stroke:rgb(85.490197%,84.705883%,90.196079%);stroke-opacity:1;stroke-miterlimit:4;" d="M 53.000488 140.000305 C 53.000488 135.581055 49.418945 131.999512 44.999695 131.999512 C 40.581818 131.999512 37.000275 135.581055 37.000275 140.000305 C 37.000275 144.418182 40.581818 147.999725 44.999695 147.999725 C 49.418945 147.999725 53.000488 144.418182 53.000488 140.000305 Z M 53.000488 140.000305 " transform="matrix(2.844444,0,0,2.844444,-28.444444,-113.777778)"/>
<path style="fill:none;stroke-width:8;stroke-linecap:round;stroke-linejoin:round;stroke:rgb(85.490197%,84.705883%,90.196079%);stroke-opacity:1;stroke-miterlimit:4;" d="M 89.999695 140.000305 C 89.999695 135.581055 86.418152 131.999512 82.000275 131.999512 C 77.582397 131.999512 73.999481 135.581055 73.999481 140.000305 C 73.999481 144.418182 77.582397 147.999725 82.000275 147.999725 C 86.418152 147.999725 89.999695 144.418182 89.999695 140.000305 Z M 89.999695 140.000305 " transform="matrix(2.844444,0,0,2.844444,-28.444444,-113.777778)"/>
<path style="fill:none;stroke-width:8;stroke-linecap:round;stroke-linejoin:round;stroke:rgb(85.490197%,84.705883%,90.196079%);stroke-opacity:1;stroke-miterlimit:4;" d="M 126.000519 140.000305 C 126.000519 135.581055 122.417603 131.999512 117.999725 131.999512 C 113.581848 131.999512 110.000305 135.581055 110.000305 140.000305 C 110.000305 144.418182 113.581848 147.999725 117.999725 147.999725 C 122.417603 147.999725 126.000519 144.418182 126.000519 140.000305 Z M 126.000519 140.000305 " transform="matrix(2.844444,0,0,2.844444,-28.444444,-113.777778)"/>
<path style="fill:none;stroke-width:8;stroke-linecap:round;stroke-linejoin:round;stroke:rgb(85.490197%,84.705883%,90.196079%);stroke-opacity:1;stroke-miterlimit:4;" d="M 162.999725 140.000305 C 162.999725 135.581055 159.418182 131.999512 155.000305 131.999512 C 150.581055 131.999512 146.999512 135.581055 146.999512 140.000305 C 146.999512 144.418182 150.581055 147.999725 155.000305 147.999725 C 159.418182 147.999725 162.999725 144.418182 162.999725 140.000305 Z M 162.999725 140.000305 " transform="matrix(2.844444,0,0,2.844444,-28.444444,-113.777778)"/>
<path style="fill:none;stroke-width:8;stroke-linecap:round;stroke-linejoin:round;stroke:rgb(85.490197%,84.705883%,90.196079%);stroke-opacity:1;stroke-miterlimit:4;" d="M 43.999939 50.000305 L 95.999603 50.000305 C 98.209229 50.000305 100 51.791077 100 53.999329 L 100 106.000366 C 100 108.208618 98.209229 109.99939 95.999603 109.99939 L 43.999939 109.99939 C 41.790314 109.99939 39.999542 108.208618 39.999542 106.000366 L 39.999542 53.999329 C 39.999542 51.791077 41.790314 50.000305 43.999939 50.000305 Z M 43.999939 50.000305 " transform="matrix(2.844444,0,0,2.844444,-28.444444,-113.777778)"/>
<path style="fill:none;stroke-width:8;stroke-linecap:round;stroke-linejoin:round;stroke:rgb(85.490197%,84.705883%,90.196079%);stroke-opacity:1;stroke-miterlimit:4;" d="M 70.000458 50.000305 L 70.000458 79.999847 L 75.00061 74.999695 L 79.99939 79.999847 L 79.99939 50.000305 " transform="matrix(2.844444,0,0,2.844444,-28.444444,-113.777778)"/>
<path style="fill:none;stroke-width:8;stroke-linecap:round;stroke-linejoin:round;stroke:rgb(85.490197%,84.705883%,90.196079%);stroke-opacity:1;stroke-miterlimit:4;" d="M 120.00061 74.999695 L 160.000458 74.999695 M 160.000458 74.999695 L 145 60.00061 M 160.000458 74.999695 L 145 90.000153 " transform="matrix(2.844444,0,0,2.844444,-28.444444,-113.777778)"/>
</g>
</svg>
